<svg id="Layer_1" data-name="Layer 1" xmlns="http://www.w3.org/2000/svg" viewBox="0 0 96 96"><defs><style>.cls-1{fill:#fac77d;}.cls-2{fill:#c96fa6;}.cls-3{fill:#ccd1dc;}.cls-4{fill:#f6b756;}.cls-5{fill:#bd5698;}.cls-6{fill:#cba07a;}.cls-7{fill:#b8c0ce;}.cls-8{fill:#dee1e7;}.cls-9{fill:#f3f4f5;}.cls-10{fill:#85bd79;}.cls-11{fill:#9fc98a;}.cls-12{fill:#bbd79f;}.cls-13{fill:#cf4055;}.cls-14{fill:#dc5d6b;}.cls-15{fill:#7190c4;}.cls-16{fill:#89a3ce;}.cls-17{fill:#a5b9db;}.cls-18{fill:#878c9f;}.cls-19{fill:#39426a;}.cls-20{fill:#ffd69e;}</style></defs><title>document, paper, page, pencil, hierarchy</title><path class="cls-1" d="M94.31,17.46V68.69H89.38V19.43a2,2,0,0,1,2-2Z"/><path class="cls-2" d="M94.31,4.65V8.59H92.48a3.1,3.1,0,0,1-3.1-3.1V2.68h3A2,2,0,0,1,94.31,4.65Z"/><rect class="cls-3" x="89.38" y="10.56" width="4.93" height="3.94"/><path class="cls-4" d="M94.31,4.65v64l-1.82,4.56-2.12,5.29-2.12-5.29-1.82-4.56v-64a2,2,0,0,1,2-2h3.94A2,2,0,0,1,94.31,4.65Z"/><path class="cls-5" d="M94.31,4.65v5.91H86.43V4.65a2,2,0,0,1,2-2h3.94A2,2,0,0,1,94.31,4.65Z"/><path class="cls-6" d="M94.31,67.78v.91l-1.82,4.56-2.12,5.29-2.12-5.29-1.82-4.56v-.91a7.85,7.85,0,0,1,7.88,0Z"/><rect class="cls-7" x="86.43" y="10.56" width="7.88" height="3.94"/><path class="cls-3" d="M13.51,7.6v5.91H1.69V7.6A5.92,5.92,0,0,1,7.6,1.69,5.92,5.92,0,0,1,13.51,7.6Z"/><path class="cls-3" d="M68.69,1.69H7.6A5.92,5.92,0,0,1,13.51,7.6V88.4a5.92,5.92,0,0,0,5.92,5.91H74.6V7.6A5.92,5.92,0,0,0,68.69,1.69Z"/><path class="cls-3" d="M86.43,82.49V88.4a5.92,5.92,0,0,1-5.92,5.91H19.43a5.92,5.92,0,0,0,5.91-5.91V82.49Z"/><path class="cls-8" d="M28.29,83.47H85.44a0,0,0,0,1,0,0v7.88a0,0,0,0,1,0,0H31.25a3,3,0,0,1-3-3V83.47A0,0,0,0,1,28.29,83.47Z"/><rect class="cls-8" x="16.47" y="4.65" width="57.15" height="74.88" rx="3.94"/><path class="cls-9" d="M20.41,6.62H69.68a2,2,0,0,1,2,2v67a2,2,0,0,1-2,2h0A51.24,51.24,0,0,1,18.44,26.32V8.59a2,2,0,0,1,2-2Z"/><rect class="cls-9" x="31.25" y="85.44" width="52.22" height="3.94" rx="1.97"/><path class="cls-10" d="M67.71,70.66a4.92,4.92,0,0,1-4.93,4.93H58.84a4.93,4.93,0,0,1-4.93-4.93,5.25,5.25,0,0,1,.22-1.48,5.14,5.14,0,0,1,1.22-2,5,5,0,0,1,3.49-1.43h3.94a4.93,4.93,0,0,1,4.71,3.44A5.25,5.25,0,0,1,67.71,70.66Z"/><path class="cls-11" d="M67.49,69.18a5.11,5.11,0,0,1-1.22,2,5,5,0,0,1-3.49,1.44H58.84a4.94,4.94,0,0,1-4.71-3.45,5.14,5.14,0,0,1,1.22-2,5,5,0,0,1,3.49-1.43h3.94A4.93,4.93,0,0,1,67.49,69.18Z"/><rect class="cls-12" x="57.85" y="68.69" width="5.91" height="1.97" rx="0.99"/><path class="cls-10" d="M34.21,70.66a4.92,4.92,0,0,1-4.93,4.93H25.34a4.93,4.93,0,0,1-4.93-4.93,5.25,5.25,0,0,1,.22-1.48,5.14,5.14,0,0,1,1.22-2,5,5,0,0,1,3.49-1.43h3.94A4.93,4.93,0,0,1,34,69.18,5.25,5.25,0,0,1,34.21,70.66Z"/><path class="cls-11" d="M34,69.18a5.11,5.11,0,0,1-1.22,2,5,5,0,0,1-3.49,1.44H25.34a4.94,4.94,0,0,1-4.71-3.45,5.14,5.14,0,0,1,1.22-2,5,5,0,0,1,3.49-1.43h3.94A4.93,4.93,0,0,1,34,69.18Z"/><rect class="cls-13" x="22.38" y="47.01" width="9.85" height="9.85"/><path class="cls-14" d="M25.34,47h6.9a0,0,0,0,1,0,0v8.87a0,0,0,0,1,0,0h0a6.9,6.9,0,0,1-6.9-6.9V47A0,0,0,0,1,25.34,47Z"/><rect class="cls-13" x="39.13" y="47.01" width="9.85" height="9.85"/><path class="cls-14" d="M42.09,47H49a0,0,0,0,1,0,0v8.87a0,0,0,0,1,0,0h0a6.9,6.9,0,0,1-6.9-6.9V47A0,0,0,0,1,42.09,47Z"/><rect class="cls-13" x="55.88" y="47.01" width="9.85" height="9.85"/><path class="cls-14" d="M58.84,47h6.9a0,0,0,0,1,0,0v8.87a0,0,0,0,1,0,0h0a6.9,6.9,0,0,1-6.9-6.9V47A0,0,0,0,1,58.84,47Z"/><rect class="cls-15" x="20.41" y="28.29" width="13.79" height="9.85"/><path class="cls-16" d="M23.37,28.29H34.21a0,0,0,0,1,0,0v6.9a0,0,0,0,1,0,0H26.13a2.76,2.76,0,0,1-2.76-2.76V28.29A0,0,0,0,1,23.37,28.29Z"/><rect class="cls-17" x="25.34" y="31.25" width="5.91" height="1.97" rx="0.99"/><rect class="cls-15" x="53.91" y="28.29" width="13.79" height="9.85"/><path class="cls-16" d="M56.87,28.29H67.71a0,0,0,0,1,0,0v6.9a0,0,0,0,1,0,0H59.63a2.76,2.76,0,0,1-2.76-2.76V28.29A0,0,0,0,1,56.87,28.29Z"/><rect class="cls-17" x="58.84" y="31.25" width="5.91" height="1.97" rx="0.99"/><rect class="cls-4" x="35.19" y="9.57" width="17.74" height="11.82"/><path class="cls-1" d="M38.15,9.57H52.93a0,0,0,0,1,0,0v8.87a0,0,0,0,1,0,0H40.12a2,2,0,0,1-2-2V9.57A0,0,0,0,1,38.15,9.57Z"/><path class="cls-18" d="M60.81,29.28a1,1,0,0,1-1-1V16.47H52.93a1,1,0,1,1,0-2h7.88a1,1,0,0,1,1,1v12.8A1,1,0,0,1,60.81,29.28Z"/><path class="cls-18" d="M27.31,29.28a1,1,0,0,1-1-1V15.49a1,1,0,0,1,1-1h7.88a1,1,0,1,1,0,2h-6.9V28.29A1,1,0,0,1,27.31,29.28Z"/><path class="cls-18" d="M27.31,48a1,1,0,0,1-1-1V38.15a1,1,0,1,1,2,0V47A1,1,0,0,1,27.31,48Z"/><path class="cls-18" d="M39.13,52.93H32.24a1,1,0,1,1,0-2h6.89a1,1,0,1,1,0,2Z"/><path class="cls-18" d="M27.31,66.72a1,1,0,0,1-1-1V56.87a1,1,0,1,1,2,0v8.87A1,1,0,0,1,27.31,66.72Z"/><path class="cls-18" d="M60.81,66.72a1,1,0,0,1-1-1V56.87a1,1,0,1,1,2,0v8.87A1,1,0,0,1,60.81,66.72Z"/><path class="cls-18" d="M60.81,48a1,1,0,0,1-1-1V38.15a1,1,0,1,1,2,0V47A1,1,0,0,1,60.81,48Z"/><path class="cls-19" d="M86.43,81.5H75.59V7.6A6.91,6.91,0,0,0,68.69.71H7.6A6.9,6.9,0,0,0,.71,7.6v5.91a1,1,0,0,0,1,1H12.53V88.4a6.9,6.9,0,0,0,6.9,6.89H80.51a6.9,6.9,0,0,0,6.9-6.89V82.49A1,1,0,0,0,86.43,81.5Zm-73.9-69H2.68V7.6a4.93,4.93,0,0,1,9.85,0Zm6.9,80.79A4.93,4.93,0,0,1,14.5,88.4V7.6a6.86,6.86,0,0,0-2.08-4.92H68.69A4.93,4.93,0,0,1,73.62,7.6V81.5H25.34a1,1,0,0,0-1,1V88.4A4.93,4.93,0,0,1,19.43,93.32Zm66-4.92a4.93,4.93,0,0,1-4.93,4.92H24.24a6.82,6.82,0,0,0,2.08-4.92V83.47H85.44Z"/><path class="cls-19" d="M92.34,1.69H88.4a3,3,0,0,0-3,3v64a1.16,1.16,0,0,0,.07.37l1.82,4.55h0l2.12,5.29a1,1,0,0,0,1.83,0l2.12-5.29h0l1.82-4.55a.94.94,0,0,0,.07-.37v-64A3,3,0,0,0,92.34,1.69Zm-.41,70.23a5.06,5.06,0,0,0-3.15,0L87.41,68.5v-.13a7,7,0,0,1,5.91,0Zm-4.52-5.65V15.49h5.91V66.27A9.07,9.07,0,0,0,87.41,66.27Zm0-54.73h5.91v2H87.41Zm1-7.88h3.94a1,1,0,0,1,1,1V9.57H87.41V4.65A1,1,0,0,1,88.4,3.66Zm1.11,70.08a3.07,3.07,0,0,1,1.7,0l-.84,2.15Z"/><path class="cls-19" d="M52.93,22.38H35.19a1,1,0,0,1-1-1V9.57a1,1,0,0,1,1-1H52.93a1,1,0,0,1,1,1V21.4A1,1,0,0,1,52.93,22.38Zm-16.75-2H51.94V10.56H36.18Z"/><path class="cls-19" d="M34.21,39.13H20.41a1,1,0,0,1-1-1V28.29a1,1,0,0,1,1-1h13.8a1,1,0,0,1,1,1v9.86A1,1,0,0,1,34.21,39.13Zm-12.81-2H33.22V29.28H21.4Z"/><path class="cls-19" d="M32.24,57.85H22.38a1,1,0,0,1-1-1V47a1,1,0,0,1,1-1h9.86a1,1,0,0,1,1,1v9.86A1,1,0,0,1,32.24,57.85Zm-8.87-2h7.88V48H23.37Z"/><path class="cls-19" d="M49,57.85H39.13a1,1,0,0,1-1-1V47a1,1,0,0,1,1-1H49a1,1,0,0,1,1,1v9.86A1,1,0,0,1,49,57.85Zm-8.87-2H48V48H40.12Z"/><path class="cls-19" d="M29.28,76.57H25.34a5.91,5.91,0,0,1,0-11.82h3.94a5.91,5.91,0,0,1,0,11.82Zm-3.94-9.85a3.94,3.94,0,0,0,0,7.88h3.94a3.94,3.94,0,0,0,0-7.88Z"/><path class="cls-19" d="M62.78,76.57H58.84a5.91,5.91,0,0,1,0-11.82h3.94a5.91,5.91,0,0,1,0,11.82Zm-3.94-9.85a3.94,3.94,0,0,0,0,7.88h3.94a3.94,3.94,0,0,0,0-7.88Z"/><path class="cls-19" d="M65.74,57.85H55.88a1,1,0,0,1-1-1V47a1,1,0,0,1,1-1h9.86a1,1,0,0,1,1,1v9.86A1,1,0,0,1,65.74,57.85Zm-8.87-2h7.88V48H56.87Z"/><path class="cls-19" d="M67.71,39.13H53.91a1,1,0,0,1-1-1V28.29a1,1,0,0,1,1-1h13.8a1,1,0,0,1,1,1v9.86A1,1,0,0,1,67.71,39.13Zm-12.81-2H66.72V29.28H54.9Z"/><rect class="cls-20" x="40.12" y="12.53" width="9.85" height="3.94" rx="1.97"/><rect class="cls-12" x="24.35" y="68.69" width="5.91" height="1.97" rx="0.99"/></svg>